<?xml version="1.0" encoding="UTF-8"?><svg id="Layer_1" xmlns="http://www.w3.org/2000/svg" viewBox="0 0 745.35 300"><defs><style>.cls-1{fill:none;}.cls-2{fill:#c7e22b;}</style></defs><g><path class="cls-2" d="M146.33,99.99h34.63v19.27h-34.63v42.1c0,9.89,0,22.32,16.59,22.32,5.39,0,11.93-1.44,18.04-3.95v19.27c-6.11,2.89-14.43,4.16-22.2,4.16-34.97,0-34.97-23.77-34.97-34.38v-49.48h-23.81v-19.27h46.34v-.04Z"/><path class="cls-2" d="M192.25,150.36c0-30.77,24.87-53.26,59.5-53.26,26.31,0,56.44,14.6,56.44,52.37v6.28h-93.03c1.61,17.82,17.48,28.26,38.07,28.26,16.59,0,29.2-7.38,35.14-18.89l20.92,7.94c-8.49,17.65-29.37,30.05-56.06,30.05-34.8,0-60.94-20.88-60.94-52.75h-.04Zm93.03-9.89c-1.44-18.16-18.04-25-33.74-25-19.31,0-32.08,10.27-35.35,25h69.09Z"/><path class="cls-2" d="M323.47,99.99h21.98v16h.38c9.21-13.16,24.15-18.89,39.85-18.89,21.65,0,42.91,11.71,42.91,39.93v62.98h-22.54v-53.64c0-16.55-9.72-29.16-27.75-29.16-19.31,0-32.46,11.16-32.46,29.88v52.92h-22.37V99.99Z"/><path class="cls-2" d="M543.13,185.71s-2.63,1.53-2.8,1.61c-4.75,2.76-8.15,5.09-12.9,7.85-2.25,1.27-5.86,3.14-8.19,4.24-2.25,1.06-4.67,1.7-7.09,2.25h-.13c-4.58,1.02-9.29,1.44-13.96,1.44-34.97,0-34.97-23.77-34.97-34.38v-49.48h-23.81v-19.27h80.97v19.27h-34.63v42.1c0,9.89,0,22.32,16.59,22.32,4.8,0,9.59-.89,14.13-2.55,4.67-1.7,8.87-4.33,12.99-7.04,1.7-1.1,3.35-2.21,5.05-3.27h.04s8.74,14.9,8.74,14.94l-.04-.04Z"/><path class="cls-2" d="M526.45,149.81c0-31.15,25.25-53.09,61.11-53.09s60.94,21.94,60.94,53.09-25.08,52.92-60.94,52.92-61.11-21.77-61.11-52.92Zm61.11,32.76c22.19,0,37.52-13.67,37.52-32.76s-15.32-32.93-37.52-32.93-37.52,13.67-37.52,32.93,15.49,32.76,37.52,32.76Z"/></g><rect class="cls-1" x="0" width="745.35" height="300"/></svg>