<?xml version="1.0" encoding="UTF-8"?><svg id="Layer_1" xmlns="http://www.w3.org/2000/svg" viewBox="0 0 300 300"><defs><style>.cls-1{fill:none;}.cls-2{fill:#c7e22b;}</style></defs><path class="cls-2" d="M154.83,203.22c0,10.67,8.68,19.35,19.35,19.35v19.35c-21.34,0-38.71-17.37-38.71-38.71,0-5.34,2.16-10.18,5.67-13.68,3.5-3.5,8.34-5.67,13.69-5.67,32.02,0,58.06-26.05,58.06-58.06s-26.05-58.06-58.06-58.06-58.06,26.05-58.06,58.06h-19.35c0-42.69,34.73-77.42,77.42-77.42s77.42,34.73,77.42,77.42-34.73,77.42-77.42,77.42Zm58.06,0h-19.35c0,21.34,17.37,38.71,38.71,38.71v-19.35c-10.67,0-19.35-8.68-19.35-19.35Zm-135.48-19.35v19.35c0,10.67-8.68,19.35-19.35,19.35v19.35c21.34,0,38.71-17.37,38.71-38.71v-19.35h-19.35Zm9.68-39.68c-5.88,0-10.65,4.77-10.65,10.65s4.77,10.65,10.65,10.65,10.65-4.77,10.65-10.65-4.77-10.65-10.65-10.65Zm58.06,0c-5.88,0-10.65,4.77-10.65,10.65s4.77,10.65,10.65,10.65,10.65-4.77,10.65-10.65-4.77-10.65-10.65-10.65Z"/><rect class="cls-1" x="0" width="300" height="300"/></svg>